<?xml version="1.0" encoding="utf-8"?>
<!DOCTYPE svg PUBLIC "-//W3C//DTD SVG 1.1//EN" "http://www.w3.org/Graphics/SVG/1.1/DTD/svg11.dtd">
<svg version="1.1" xmlns="http://www.w3.org/2000/svg" xmlns:xlink="http://www.w3.org/1999/xlink" x="0px" y="0px"
	 width="40px" height="40px" viewBox="0 0 54.5 54.5" preserveAspectRatio="none" style="enable-background:new 0 0 40 40;" xml:space="preserve">
<style type="text/css">
<![CDATA[
	#bg{fill:#4671A8;}
	#icon{fill-rule:evenodd;clip-rule:evenodd;fill:#FFFFFF}
]]>
</style>
<rect width="54.5" height="54.5" id="bg"/>
<path transform="translate(3,5)" id="icon" class="st3" d="M28.5,8c-1.7,0-3.3,0.3-4.5,0.8c-1.1,0.6-1.9,1.5-2.3,2.4c-0.4,0.9-0.6,2-0.6,3.8v2h-3v5h3v15
	h6V22h3.7l1-5H27v-1.9c0-1.1,0.2-1.8,0.6-2.2c0.4-0.4,1.2-0.6,2-0.6c0.9,0,1.6,0.4,2.5,1L33.2,9C31.6,8.5,30.2,8,28.5,8z"/>
</svg>
