<?xml version="1.0" encoding="utf-8"?>
<!DOCTYPE svg PUBLIC "-//W3C//DTD SVG 1.1//EN" "http://www.w3.org/Graphics/SVG/1.1/DTD/svg11.dtd">
<svg version="1.1" xmlns="http://www.w3.org/2000/svg" xmlns:xlink="http://www.w3.org/1999/xlink" x="0px" y="0px"
	 width="44px" height="42px" viewBox="0 0 44 42" preserveAspectRatio="none" style="enable-background:new 0 0 44 42;" xml:space="preserve">
<style type="text/css">
<![CDATA[
	#bg{fill:#1872CA;}
	.st2{fill:#FFFFFF;}
]]>
</style>
<rect width="44" height="42" id="bg"/>
<g id="slideshare" transform="translate(6,3), scale(0.83,0.9)">
	<path class="st2" d="M33.1,17.4c-0.3,0-0.5,0.1-0.7,0.3C32,18.4,31,18.8,31,19.2V9.4C31,8.1,29.9,7,28.5,7H11.4C10.1,7,9,8.1,9,9.4
		v9.8c0-0.4-0.9-0.9-1.4-1.5c-0.2-0.2-0.4-0.3-0.7-0.3c-0.5,0-0.9,0.4-0.9,0.9c0,0,0,0.1,0,0.1c0,0,0,0,0,0.1c0.2,1.1,2,4.2,4.9,5.4
		c0.1,0,0.1,0.2,0.1,0.3c-0.3,0.8-0.5,1.8-0.5,3c0,4,3.2,6.3,5.3,6.3c2.1,0,3.2-1.2,3.2-2.8c0-1.2,0-2.8,0-5.3
		c1,0.1,1.2,0.2,2.2,0.2c1.2,0,2.2-0.4,2.9-0.7c0.5-0.3,0.7-0.1,0.3,0.3c-0.9,1.2-2.4,2-3.4,2.3c0,1.4,0,2.4,0,3.2
		c0,1.6,1.1,2.8,3.2,2.8c2.1,0,5.3-2.3,5.3-6.3c0-1.2-0.2-2.2-0.5-3c0-0.1,0-0.2,0.1-0.3c2.9-1.2,4.6-4.3,4.9-5.4c0,0,0,0,0-0.1
		c0-0.1,0-0.1,0-0.1C34,17.8,33.6,17.4,33.1,17.4z M29,20.4c-1,0.5-3.1,0.7-5,0.7c-1.1,0-3,0.4-3,2c-0.4-0.1-0.6-0.3-1.1-0.7
		c-1.5-1.3-1.7-1.4-2.8-1.4c-0.6,0-1.1,0-1.1,0c-2,0-4,0-5-0.5V9.4C11,9.2,11.2,9,11.4,9h17.2C28.8,9,29,9.2,29,9.4V20.4z"/>
	<circle class="st2" cx="24" cy="17" r="3"/>
	<circle class="st2" cx="16" cy="17" r="3"/>
</g>
</svg>
