<?xml version="1.0" encoding="utf-8"?>
<!DOCTYPE svg PUBLIC "-//W3C//DTD SVG 1.1//EN" "http://www.w3.org/Graphics/SVG/1.1/DTD/svg11.dtd">
<svg version="1.1" xmlns="http://www.w3.org/2000/svg" xmlns:xlink="http://www.w3.org/1999/xlink" x="0px" y="0px"
	 width="40px" height="40px" viewBox="0 0 40 40" preserveAspectRatio="none" style="enable-background:new 0 0 40 40;" xml:space="preserve">
<style type="text/css">
<![CDATA[
	#bg{fill:#85DDF8;}
	#icon{fill-rule:evenodd;clip-rule:evenodd;fill:#FFFFFF;}
]]>
</style>
<rect width="40" height="40" id="bg"/>
<path id="icon" d="M32,11.9l-2.3,2.4c0,0,0-0.2,0,0.4c0,0.4-0.1,0.8-0.2,1.2c-0.1,3.2-1,7.6-5.1,11
	c-8,6.7-16.7,0.8-16.7,0.8c6.8,0,6.8-2.4,6.8-2.4c-1.5,0-4.5-3.1-4.5-3.1c0.8,0.8,2.3,0,2.3,0c-3.8-2.4-3.8-4.7-3.8-4.7
	c0.8,0.8,2.3,0,2.3,0c-3.8-3.1-1.5-7.1-1.5-7.1c0.8,3.9,10.6,5.5,10.6,5.5l0.1-0.1c-0.1-0.4-0.1-1.1-0.1-1.5c0-2.8,2.2-4.7,4.9-4.7
	c1.5,0,2.8,0.7,3.7,1.8l0.4-0.2l2.3-1.6l-1.5,3.1L32,11.9z"/>
</svg>
