<?xml version="1.0" encoding="utf-8"?>
<!DOCTYPE svg PUBLIC "-//W3C//DTD SVG 1.1//EN" "http://www.w3.org/Graphics/SVG/1.1/DTD/svg11.dtd">
<svg version="1.1" xmlns="http://www.w3.org/2000/svg" xmlns:xlink="http://www.w3.org/1999/xlink" x="0px" y="0px"
	 width="40px" height="40px" preserveAspectRatio="none"  viewBox="0 0 40 40" style="enable-background:new 0 0 40 40;" xml:space="preserve">
<style type="text/css">
<![CDATA[
	#bg{fill:#278ED7;}
	#icon{fill-rule:evenodd;clip-rule:evenodd;fill:#FFFFFF;}
]]>
</style>
<rect width="40" height="40" id="bg"/>
<path id="icon" d="M28.6,22c-1.5,2.1-3.6,4.7-5.4,6.2c-1.3,1.1-3.7,2.8-5.6,2.5c-4.9-0.8-3.9-12.6-7.2-15.2
	C8.9,15,8.2,17.3,7.4,16c-1.3-1.1,1.3-2.9,2.6-4c1.6-1.3,3.5-3.2,5.6-2.4c4.1,1.6,1.2,11.3,5.1,13.4c2-1.6,4.3-4.3,3.8-7.5
	c-0.4-1.1-2.3-0.7-3.3-0.5C21.2,10,31.1,6.2,32,13C32.4,17.1,28.6,22,28.6,22z"/>
</svg>
