<?xml version="1.0" encoding="utf-8"?>
<!DOCTYPE svg PUBLIC "-//W3C//DTD SVG 1.1//EN" "http://www.w3.org/Graphics/SVG/1.1/DTD/svg11.dtd">
<svg version="1.1" xmlns="http://www.w3.org/2000/svg" xmlns:xlink="http://www.w3.org/1999/xlink" x="0px" y="0px"
	 width="40px" height="40px" preserveAspectRatio="none" viewBox="0 0 40 40" style="enable-background:new 0 0 40 40;" xml:space="preserve">
<style type="text/css">
<![CDATA[
	#bg{fill:#EC2121;}
	#icon{fill-rule:evenodd;clip-rule:evenodd;fill:#FFFFFF;}
]]>
</style>
<rect width="40" height="40" id="bg"/>
<path id="icon" d="M31.6,26.1c-0.3,1.4-1.3,2.4-2.6,2.5C26,29,23,29,20,29c-3,0-6,0-9-0.4c-1.3-0.2-2.3-1.2-2.6-2.5
	C8,24.1,8,22,8,20s0-4.1,0.4-6.1c0.3-1.4,1.3-2.4,2.6-2.5c3-0.4,6-0.4,9-0.4c3,0,6,0,9,0.4c1.3,0.2,2.3,1.2,2.6,2.5
	C32,15.9,32,18,32,20S32,24.1,31.6,26.1z M24.7,19.3L17.9,15c-0.3-0.2-0.6-0.2-0.9,0c-0.3,0.1-0.5,0.4-0.5,0.8v8.6
	c0,0.3,0.2,0.6,0.5,0.7c0.1,0.1,0.3,0.1,0.4,0.1c0.2,0,0.3,0,0.5-0.1l6.9-4.3c0.3-0.1,0.4-0.4,0.4-0.7S25,19.4,24.7,19.3z"/>
</svg>
